<?xml version="1.0" encoding="UTF-8" standalone="no"?>
<!DOCTYPE svg PUBLIC "-//W3C//DTD SVG 1.1//EN"
 "http://www.w3.org/Graphics/SVG/1.1/DTD/svg11.dtd">
<!-- Generated by graphviz version 2.47.0 (20210316.0004)
 -->
<!-- Title: dependencies Pages: 1 -->
<svg width="1341pt" height="211pt"
 viewBox="0.00 0.00 1341.00 211.00" xmlns="http://www.w3.org/2000/svg" xmlns:xlink="http://www.w3.org/1999/xlink">
<g id="graph0" class="graph" transform="scale(1 1) rotate(0) translate(4 207)">
<title>dependencies</title>
<polygon fill="white" stroke="transparent" points="-4,4 -4,-207 1337,-207 1337,4 -4,4"/>
<text text-anchor="start" x="645.51" y="-42.4" font-family="Times-12" font-weight="bold" font-size="14.00">Legend</text>
<polygon fill="#ffffb3" stroke="transparent" points="432.5,-10 432.5,-30 452.5,-30 452.5,-10 432.5,-10"/>
<text text-anchor="start" x="456.13" y="-15.4" font-family="Times-12" font-size="14.00"> &#160;Declarations</text>
<polygon fill="#8dd3c7" stroke="transparent" points="545.5,-10 545.5,-30 565.5,-30 565.5,-10 545.5,-10"/>
<text text-anchor="start" x="569.23" y="-15.4" font-family="Times-12" font-size="14.00"> &#160;Module</text>
<polygon fill="#80b1d3" stroke="transparent" points="631.5,-10 631.5,-30 651.5,-30 651.5,-10 631.5,-10"/>
<text text-anchor="start" x="655.28" y="-15.4" font-family="Times-12" font-size="14.00"> &#160;Bootstrap</text>
<polygon fill="#fdb462" stroke="transparent" points="728.5,-10 728.5,-30 748.5,-30 748.5,-10 728.5,-10"/>
<text text-anchor="start" x="752.17" y="-15.4" font-family="Times-12" font-size="14.00"> &#160;Providers</text>
<polygon fill="#fb8072" stroke="transparent" points="824.5,-10 824.5,-30 844.5,-30 844.5,-10 824.5,-10"/>
<text text-anchor="start" x="848.23" y="-15.4" font-family="Times-12" font-size="14.00"> &#160;Exports</text>
<g id="clust1" class="cluster">
<title>cluster_AuthModule</title>
<polygon fill="none" stroke="black" stroke-dasharray="1,5" points="8,-70 8,-195 1325,-195 1325,-70 8,-70"/>
</g>
<g id="clust3" class="cluster">
<title>cluster_AuthModule_imports</title>
<polygon fill="none" stroke="black" points="1099,-78 1099,-130 1317,-130 1317,-78 1099,-78"/>
</g>
<g id="clust6" class="cluster">
<title>cluster_AuthModule_providers</title>
<polygon fill="none" stroke="black" points="16,-78 16,-130 1091,-130 1091,-78 16,-78"/>
</g>
<!-- EmailModule -->
<g id="node1" class="node">
<title>EmailModule</title>
<polygon fill="#8dd3c7" stroke="black" points="1309.49,-122 1306.49,-126 1285.49,-126 1282.49,-122 1216.51,-122 1216.51,-86 1309.49,-86 1309.49,-122"/>
<text text-anchor="middle" x="1263" y="-99.8" font-family="Times,serif" font-size="14.00">EmailModule</text>
</g>
<!-- AuthModule -->
<g id="node3" class="node">
<title>AuthModule</title>
<polygon fill="#8dd3c7" stroke="black" points="806.55,-187 803.55,-191 782.55,-191 779.55,-187 719.45,-187 719.45,-151 806.55,-151 806.55,-187"/>
<text text-anchor="middle" x="763" y="-164.8" font-family="Times,serif" font-size="14.00">AuthModule</text>
</g>
<!-- EmailModule&#45;&gt;AuthModule -->
<g id="edge1" class="edge">
<title>EmailModule&#45;&gt;AuthModule</title>
<path fill="none" stroke="black" d="M1263,-122.29C1263,-144.21 1263,-178 1263,-178 1263,-178 816.93,-178 816.93,-178"/>
<polygon fill="black" stroke="black" points="816.93,-174.5 806.93,-178 816.93,-181.5 816.93,-174.5"/>
</g>
<!-- UsersModule -->
<g id="node2" class="node">
<title>UsersModule</title>
<polygon fill="#8dd3c7" stroke="black" points="1198.92,-122 1195.92,-126 1174.92,-126 1171.92,-122 1107.08,-122 1107.08,-86 1198.92,-86 1198.92,-122"/>
<text text-anchor="middle" x="1153" y="-99.8" font-family="Times,serif" font-size="14.00">UsersModule</text>
</g>
<!-- UsersModule&#45;&gt;AuthModule -->
<g id="edge2" class="edge">
<title>UsersModule&#45;&gt;AuthModule</title>
<path fill="none" stroke="black" d="M1153,-122.11C1153,-141.34 1153,-169 1153,-169 1153,-169 816.6,-169 816.6,-169"/>
<polygon fill="black" stroke="black" points="816.6,-165.5 806.6,-169 816.6,-172.5 816.6,-165.5"/>
</g>
<!-- AuthService -->
<g id="node4" class="node">
<title>AuthService</title>
<ellipse fill="#fdb462" stroke="black" cx="1024" cy="-104" rx="59.11" ry="18"/>
<text text-anchor="middle" x="1024" y="-99.8" font-family="Times,serif" font-size="14.00">AuthService</text>
</g>
<!-- AuthService&#45;&gt;AuthModule -->
<g id="edge3" class="edge">
<title>AuthService&#45;&gt;AuthModule</title>
<path fill="none" stroke="black" d="M1024,-122.03C1024,-138.4 1024,-160 1024,-160 1024,-160 816.69,-160 816.69,-160"/>
<polygon fill="black" stroke="black" points="816.69,-156.5 806.69,-160 816.69,-163.5 816.69,-156.5"/>
</g>
<!-- GoogleAuthStrategy -->
<g id="node5" class="node">
<title>GoogleAuthStrategy</title>
<ellipse fill="#fdb462" stroke="black" cx="856" cy="-104" rx="90.91" ry="18"/>
<text text-anchor="middle" x="856" y="-99.8" font-family="Times,serif" font-size="14.00">GoogleAuthStrategy</text>
</g>
<!-- GoogleAuthStrategy&#45;&gt;AuthModule -->
<g id="edge4" class="edge">
<title>GoogleAuthStrategy&#45;&gt;AuthModule</title>
<path fill="none" stroke="black" d="M785.91,-115.62C785.91,-115.62 785.91,-140.85 785.91,-140.85"/>
<polygon fill="black" stroke="black" points="782.41,-140.85 785.91,-150.85 789.41,-140.85 782.41,-140.85"/>
</g>
<!-- JwtAuthStrategy -->
<g id="node6" class="node">
<title>JwtAuthStrategy</title>
<ellipse fill="#fdb462" stroke="black" cx="671" cy="-104" rx="75.88" ry="18"/>
<text text-anchor="middle" x="671" y="-99.8" font-family="Times,serif" font-size="14.00">JwtAuthStrategy</text>
</g>
<!-- JwtAuthStrategy&#45;&gt;AuthModule -->
<g id="edge5" class="edge">
<title>JwtAuthStrategy&#45;&gt;AuthModule</title>
<path fill="none" stroke="black" d="M733.08,-114.44C733.08,-114.44 733.08,-140.97 733.08,-140.97"/>
<polygon fill="black" stroke="black" points="729.58,-140.97 733.08,-150.97 736.58,-140.97 729.58,-140.97"/>
</g>
<!-- KakaoAuthStrategy -->
<g id="node7" class="node">
<title>KakaoAuthStrategy</title>
<ellipse fill="#fdb462" stroke="black" cx="489" cy="-104" rx="87.96" ry="18"/>
<text text-anchor="middle" x="489" y="-99.8" font-family="Times,serif" font-size="14.00">KakaoAuthStrategy</text>
</g>
<!-- KakaoAuthStrategy&#45;&gt;AuthModule -->
<g id="edge6" class="edge">
<title>KakaoAuthStrategy&#45;&gt;AuthModule</title>
<path fill="none" stroke="black" d="M489,-122.03C489,-138.4 489,-160 489,-160 489,-160 709.28,-160 709.28,-160"/>
<polygon fill="black" stroke="black" points="709.28,-163.5 719.28,-160 709.28,-156.5 709.28,-163.5"/>
</g>
<!-- LocalAuthStrategy -->
<g id="node8" class="node">
<title>LocalAuthStrategy</title>
<ellipse fill="#fdb462" stroke="black" cx="299" cy="-104" rx="84.53" ry="18"/>
<text text-anchor="middle" x="299" y="-99.8" font-family="Times,serif" font-size="14.00">LocalAuthStrategy</text>
</g>
<!-- LocalAuthStrategy&#45;&gt;AuthModule -->
<g id="edge7" class="edge">
<title>LocalAuthStrategy&#45;&gt;AuthModule</title>
<path fill="none" stroke="black" d="M299,-122.11C299,-141.34 299,-169 299,-169 299,-169 709.35,-169 709.35,-169"/>
<polygon fill="black" stroke="black" points="709.35,-172.5 719.35,-169 709.35,-165.5 709.35,-172.5"/>
</g>
<!-- NaverAuthStrategy -->
<g id="node9" class="node">
<title>NaverAuthStrategy</title>
<ellipse fill="#fdb462" stroke="black" cx="110" cy="-104" rx="86.23" ry="18"/>
<text text-anchor="middle" x="110" y="-99.8" font-family="Times,serif" font-size="14.00">NaverAuthStrategy</text>
</g>
<!-- NaverAuthStrategy&#45;&gt;AuthModule -->
<g id="edge8" class="edge">
<title>NaverAuthStrategy&#45;&gt;AuthModule</title>
<path fill="none" stroke="black" d="M110,-122.29C110,-144.21 110,-178 110,-178 110,-178 709.4,-178 709.4,-178"/>
<polygon fill="black" stroke="black" points="709.4,-181.5 719.4,-178 709.4,-174.5 709.4,-181.5"/>
</g>
</g>
</svg>
