<?xml version="1.0" encoding="UTF-8" standalone="no"?>
<!DOCTYPE svg PUBLIC "-//W3C//DTD SVG 1.1//EN"
 "http://www.w3.org/Graphics/SVG/1.1/DTD/svg11.dtd">
<!-- Generated by graphviz version 2.47.0 (20210316.0004)
 -->
<!-- Title: dependencies Pages: 1 -->
<svg width="1505pt" height="211pt"
 viewBox="0.00 0.00 1505.00 211.00" xmlns="http://www.w3.org/2000/svg" xmlns:xlink="http://www.w3.org/1999/xlink">
<g id="graph0" class="graph" transform="scale(1 1) rotate(0) translate(4 207)">
<title>dependencies</title>
<polygon fill="white" stroke="transparent" points="-4,4 -4,-207 1501,-207 1501,4 -4,4"/>
<text text-anchor="start" x="727.51" y="-42.4" font-family="Times-12" font-weight="bold" font-size="14.00">Legend</text>
<polygon fill="#ffffb3" stroke="transparent" points="514.5,-10 514.5,-30 534.5,-30 534.5,-10 514.5,-10"/>
<text text-anchor="start" x="538.13" y="-15.4" font-family="Times-12" font-size="14.00"> &#160;Declarations</text>
<polygon fill="#8dd3c7" stroke="transparent" points="627.5,-10 627.5,-30 647.5,-30 647.5,-10 627.5,-10"/>
<text text-anchor="start" x="651.23" y="-15.4" font-family="Times-12" font-size="14.00"> &#160;Module</text>
<polygon fill="#80b1d3" stroke="transparent" points="713.5,-10 713.5,-30 733.5,-30 733.5,-10 713.5,-10"/>
<text text-anchor="start" x="737.28" y="-15.4" font-family="Times-12" font-size="14.00"> &#160;Bootstrap</text>
<polygon fill="#fdb462" stroke="transparent" points="810.5,-10 810.5,-30 830.5,-30 830.5,-10 810.5,-10"/>
<text text-anchor="start" x="834.17" y="-15.4" font-family="Times-12" font-size="14.00"> &#160;Providers</text>
<polygon fill="#fb8072" stroke="transparent" points="906.5,-10 906.5,-30 926.5,-30 926.5,-10 906.5,-10"/>
<text text-anchor="start" x="930.23" y="-15.4" font-family="Times-12" font-size="14.00"> &#160;Exports</text>
<g id="clust1" class="cluster">
<title>cluster_AppModule</title>
<polygon fill="none" stroke="black" stroke-dasharray="1,5" points="8,-70 8,-195 1489,-195 1489,-70 8,-70"/>
</g>
<g id="clust6" class="cluster">
<title>cluster_AppModule_providers</title>
<polygon fill="none" stroke="black" points="1351,-78 1351,-130 1481,-130 1481,-78 1351,-78"/>
</g>
<g id="clust3" class="cluster">
<title>cluster_AppModule_imports</title>
<polygon fill="none" stroke="black" points="16,-78 16,-130 1343,-130 1343,-78 16,-78"/>
</g>
<!-- AppConfigModule -->
<g id="node1" class="node">
<title>AppConfigModule</title>
<polygon fill="#8dd3c7" stroke="black" points="1335.05,-122 1332.05,-126 1311.05,-126 1308.05,-122 1212.95,-122 1212.95,-86 1335.05,-86 1335.05,-122"/>
<text text-anchor="middle" x="1274" y="-99.8" font-family="Times,serif" font-size="14.00">AppConfigModule</text>
</g>
<!-- AppModule -->
<g id="node12" class="node">
<title>AppModule</title>
<polygon fill="#8dd3c7" stroke="black" points="766.66,-187 763.66,-191 742.66,-191 739.66,-187 683.34,-187 683.34,-151 766.66,-151 766.66,-187"/>
<text text-anchor="middle" x="725" y="-164.8" font-family="Times,serif" font-size="14.00">AppModule</text>
</g>
<!-- AppConfigModule&#45;&gt;AppModule -->
<g id="edge1" class="edge">
<title>AppConfigModule&#45;&gt;AppModule</title>
<path fill="none" stroke="black" d="M1274,-122.28C1274,-143.32 1274,-175 1274,-175 1274,-175 776.71,-175 776.71,-175"/>
<polygon fill="black" stroke="black" points="776.71,-171.5 766.71,-175 776.71,-178.5 776.71,-171.5"/>
</g>
<!-- AuthModule -->
<g id="node2" class="node">
<title>AuthModule</title>
<polygon fill="#8dd3c7" stroke="black" points="1194.55,-122 1191.55,-126 1170.55,-126 1167.55,-122 1107.45,-122 1107.45,-86 1194.55,-86 1194.55,-122"/>
<text text-anchor="middle" x="1151" y="-99.8" font-family="Times,serif" font-size="14.00">AuthModule</text>
</g>
<!-- AuthModule&#45;&gt;AppModule -->
<g id="edge2" class="edge">
<title>AuthModule&#45;&gt;AppModule</title>
<path fill="none" stroke="black" d="M1151,-122.11C1151,-141.34 1151,-169 1151,-169 1151,-169 777.01,-169 777.01,-169"/>
<polygon fill="black" stroke="black" points="777.01,-165.5 767.01,-169 777.01,-172.5 777.01,-165.5"/>
</g>
<!-- CommentModule -->
<g id="node3" class="node">
<title>CommentModule</title>
<polygon fill="#8dd3c7" stroke="black" points="1089.27,-122 1086.27,-126 1065.27,-126 1062.27,-122 974.73,-122 974.73,-86 1089.27,-86 1089.27,-122"/>
<text text-anchor="middle" x="1032" y="-99.8" font-family="Times,serif" font-size="14.00">CommentModule</text>
</g>
<!-- CommentModule&#45;&gt;AppModule -->
<g id="edge3" class="edge">
<title>CommentModule&#45;&gt;AppModule</title>
<path fill="none" stroke="black" d="M1032,-122.02C1032,-139.37 1032,-163 1032,-163 1032,-163 776.72,-163 776.72,-163"/>
<polygon fill="black" stroke="black" points="776.72,-159.5 766.72,-163 776.72,-166.5 776.72,-159.5"/>
</g>
<!-- DatabaseModule -->
<g id="node4" class="node">
<title>DatabaseModule</title>
<polygon fill="#8dd3c7" stroke="black" points="956.35,-122 953.35,-126 932.35,-126 929.35,-122 845.65,-122 845.65,-86 956.35,-86 956.35,-122"/>
<text text-anchor="middle" x="901" y="-99.8" font-family="Times,serif" font-size="14.00">DatabaseModule</text>
</g>
<!-- DatabaseModule&#45;&gt;AppModule -->
<g id="edge4" class="edge">
<title>DatabaseModule&#45;&gt;AppModule</title>
<path fill="none" stroke="black" d="M901,-122.24C901,-137.57 901,-157 901,-157 901,-157 776.71,-157 776.71,-157"/>
<polygon fill="black" stroke="black" points="776.71,-153.5 766.71,-157 776.71,-160.5 776.71,-153.5"/>
</g>
<!-- EmailModule -->
<g id="node5" class="node">
<title>EmailModule</title>
<polygon fill="#8dd3c7" stroke="black" points="827.49,-122 824.49,-126 803.49,-126 800.49,-122 734.51,-122 734.51,-86 827.49,-86 827.49,-122"/>
<text text-anchor="middle" x="781" y="-99.8" font-family="Times,serif" font-size="14.00">EmailModule</text>
</g>
<!-- EmailModule&#45;&gt;AppModule -->
<g id="edge5" class="edge">
<title>EmailModule&#45;&gt;AppModule</title>
<path fill="none" stroke="black" d="M750.67,-122.11C750.67,-122.11 750.67,-140.99 750.67,-140.99"/>
<polygon fill="black" stroke="black" points="747.17,-140.99 750.67,-150.99 754.17,-140.99 747.17,-140.99"/>
</g>
<!-- OrderModule -->
<g id="node6" class="node">
<title>OrderModule</title>
<polygon fill="#8dd3c7" stroke="black" points="716.19,-122 713.19,-126 692.19,-126 689.19,-122 623.81,-122 623.81,-86 716.19,-86 716.19,-122"/>
<text text-anchor="middle" x="670" y="-99.8" font-family="Times,serif" font-size="14.00">OrderModule</text>
</g>
<!-- OrderModule&#45;&gt;AppModule -->
<g id="edge6" class="edge">
<title>OrderModule&#45;&gt;AppModule</title>
<path fill="none" stroke="black" d="M699.63,-122.11C699.63,-122.11 699.63,-140.99 699.63,-140.99"/>
<polygon fill="black" stroke="black" points="696.13,-140.99 699.63,-150.99 703.13,-140.99 696.13,-140.99"/>
</g>
<!-- ProductModule -->
<g id="node7" class="node">
<title>ProductModule</title>
<polygon fill="#8dd3c7" stroke="black" points="605.6,-122 602.6,-126 581.6,-126 578.6,-122 502.4,-122 502.4,-86 605.6,-86 605.6,-122"/>
<text text-anchor="middle" x="554" y="-99.8" font-family="Times,serif" font-size="14.00">ProductModule</text>
</g>
<!-- ProductModule&#45;&gt;AppModule -->
<g id="edge7" class="edge">
<title>ProductModule&#45;&gt;AppModule</title>
<path fill="none" stroke="black" d="M554,-122.24C554,-137.57 554,-157 554,-157 554,-157 673.17,-157 673.17,-157"/>
<polygon fill="black" stroke="black" points="673.17,-160.5 683.17,-157 673.17,-153.5 673.17,-160.5"/>
</g>
<!-- RatingModule -->
<g id="node8" class="node">
<title>RatingModule</title>
<polygon fill="#8dd3c7" stroke="black" points="484.38,-122 481.38,-126 460.38,-126 457.38,-122 387.62,-122 387.62,-86 484.38,-86 484.38,-122"/>
<text text-anchor="middle" x="436" y="-99.8" font-family="Times,serif" font-size="14.00">RatingModule</text>
</g>
<!-- RatingModule&#45;&gt;AppModule -->
<g id="edge8" class="edge">
<title>RatingModule&#45;&gt;AppModule</title>
<path fill="none" stroke="black" d="M436,-122.02C436,-139.37 436,-163 436,-163 436,-163 673.29,-163 673.29,-163"/>
<polygon fill="black" stroke="black" points="673.29,-166.5 683.29,-163 673.29,-159.5 673.29,-166.5"/>
</g>
<!-- RedisModule -->
<g id="node9" class="node">
<title>RedisModule</title>
<polygon fill="#8dd3c7" stroke="black" points="369.94,-122 366.94,-126 345.94,-126 342.94,-122 278.06,-122 278.06,-86 369.94,-86 369.94,-122"/>
<text text-anchor="middle" x="324" y="-99.8" font-family="Times,serif" font-size="14.00">RedisModule</text>
</g>
<!-- RedisModule&#45;&gt;AppModule -->
<g id="edge9" class="edge">
<title>RedisModule&#45;&gt;AppModule</title>
<path fill="none" stroke="black" d="M324,-122.11C324,-141.34 324,-169 324,-169 324,-169 673.22,-169 673.22,-169"/>
<polygon fill="black" stroke="black" points="673.22,-172.5 683.22,-169 673.22,-165.5 673.22,-172.5"/>
</g>
<!-- ReservationModule -->
<g id="node10" class="node">
<title>ReservationModule</title>
<polygon fill="#8dd3c7" stroke="black" points="260.42,-122 257.42,-126 236.42,-126 233.42,-122 133.58,-122 133.58,-86 260.42,-86 260.42,-122"/>
<text text-anchor="middle" x="197" y="-99.8" font-family="Times,serif" font-size="14.00">ReservationModule</text>
</g>
<!-- ReservationModule&#45;&gt;AppModule -->
<g id="edge10" class="edge">
<title>ReservationModule&#45;&gt;AppModule</title>
<path fill="none" stroke="black" d="M197,-122.28C197,-143.32 197,-175 197,-175 197,-175 673.13,-175 673.13,-175"/>
<polygon fill="black" stroke="black" points="673.13,-178.5 683.13,-175 673.13,-171.5 673.13,-178.5"/>
</g>
<!-- UsersModule -->
<g id="node11" class="node">
<title>UsersModule</title>
<polygon fill="#8dd3c7" stroke="black" points="115.92,-122 112.92,-126 91.92,-126 88.92,-122 24.08,-122 24.08,-86 115.92,-86 115.92,-122"/>
<text text-anchor="middle" x="70" y="-99.8" font-family="Times,serif" font-size="14.00">UsersModule</text>
</g>
<!-- UsersModule&#45;&gt;AppModule -->
<g id="edge11" class="edge">
<title>UsersModule&#45;&gt;AppModule</title>
<path fill="none" stroke="black" d="M70,-122.09C70,-145.13 70,-182 70,-182 70,-182 673.03,-182 673.03,-182"/>
<polygon fill="black" stroke="black" points="673.03,-185.5 683.03,-182 673.03,-178.5 673.03,-185.5"/>
</g>
<!-- AppService -->
<g id="node13" class="node">
<title>AppService</title>
<ellipse fill="#fdb462" stroke="black" cx="1416" cy="-104" rx="56.74" ry="18"/>
<text text-anchor="middle" x="1416" y="-99.8" font-family="Times,serif" font-size="14.00">AppService</text>
</g>
<!-- AppService&#45;&gt;AppModule -->
<g id="edge12" class="edge">
<title>AppService&#45;&gt;AppModule</title>
<path fill="none" stroke="black" d="M1416,-122.09C1416,-145.13 1416,-182 1416,-182 1416,-182 776.67,-182 776.67,-182"/>
<polygon fill="black" stroke="black" points="776.67,-178.5 766.67,-182 776.67,-185.5 776.67,-178.5"/>
</g>
</g>
</svg>
